<mxfile host="app.diagrams.net" agent="Mozilla/5.0 (Windows NT 10.0; Win64; x64) AppleWebKit/537.36 (KHTML, like Gecko) Chrome/139.0.0.0 Safari/537.36" version="28.1.1">
  <diagram name="Page-1" id="i92GKLFAhw8DlwOfjJJc">
    <mxGraphModel grid="0" page="1" gridSize="10" guides="1" tooltips="1" connect="1" arrows="1" fold="1" pageScale="1" pageWidth="1100" pageHeight="850" math="0" shadow="0">
      <root>
        <mxCell id="0" />
        <mxCell id="1" parent="0" />
        <mxCell id="5lv8WBXDHVcQkMYeCGPv-1" value="" style="rounded=0;whiteSpace=wrap;html=1;fillColor=none;" vertex="1" parent="1">
          <mxGeometry x="121" y="177" width="120" height="350" as="geometry" />
        </mxCell>
        <mxCell id="pLGgkDce8P1JYZrS_Spk-1" value="Sources" style="rounded=0;whiteSpace=wrap;html=1;" vertex="1" parent="1">
          <mxGeometry x="141" y="157" width="80" height="30" as="geometry" />
        </mxCell>
        <mxCell id="ZvS9dqXflpcuF5kf7HD6-1" style="edgeStyle=orthogonalEdgeStyle;rounded=0;orthogonalLoop=1;jettySize=auto;html=1;" edge="1" parent="1" source="pLGgkDce8P1JYZrS_Spk-2">
          <mxGeometry relative="1" as="geometry">
            <mxPoint x="311" y="279.46500000000003" as="targetPoint" />
          </mxGeometry>
        </mxCell>
        <mxCell id="pLGgkDce8P1JYZrS_Spk-2" value="&lt;font style=&quot;font-size: 10px;&quot;&gt;CRM&lt;/font&gt;" style="image;aspect=fixed;html=1;points=[];align=center;fontSize=12;image=img/lib/azure2/general/Folder_Blank.svg;" vertex="1" parent="1">
          <mxGeometry x="151" y="255.12" width="60" height="48.69" as="geometry" />
        </mxCell>
        <mxCell id="pLGgkDce8P1JYZrS_Spk-3" value="" style="sketch=0;html=1;aspect=fixed;strokeColor=none;shadow=0;fillColor=#3B8DF1;verticalAlign=top;labelPosition=center;verticalLabelPosition=bottom;shape=mxgraph.gcp2.files" vertex="1" parent="1">
          <mxGeometry x="180.09" y="277" width="30.93" height="30" as="geometry" />
        </mxCell>
        <mxCell id="ZvS9dqXflpcuF5kf7HD6-2" style="edgeStyle=orthogonalEdgeStyle;rounded=0;orthogonalLoop=1;jettySize=auto;html=1;" edge="1" parent="1" source="pLGgkDce8P1JYZrS_Spk-4">
          <mxGeometry relative="1" as="geometry">
            <mxPoint x="311" y="419.40999999999997" as="targetPoint" />
          </mxGeometry>
        </mxCell>
        <mxCell id="pLGgkDce8P1JYZrS_Spk-4" value="&lt;font style=&quot;font-size: 10px;&quot;&gt;ERP&lt;/font&gt;&lt;div&gt;&lt;font style=&quot;font-size: 10px;&quot;&gt;&lt;br&gt;&lt;/font&gt;&lt;/div&gt;" style="image;aspect=fixed;html=1;points=[];align=center;fontSize=12;image=img/lib/azure2/general/Folder_Blank.svg;" vertex="1" parent="1">
          <mxGeometry x="151" y="395.05" width="60.02" height="48.72" as="geometry" />
        </mxCell>
        <mxCell id="pLGgkDce8P1JYZrS_Spk-5" value="" style="sketch=0;html=1;aspect=fixed;strokeColor=none;shadow=0;fillColor=#3B8DF1;verticalAlign=top;labelPosition=center;verticalLabelPosition=bottom;shape=mxgraph.gcp2.files" vertex="1" parent="1">
          <mxGeometry x="180.08999999999997" y="412.94" width="31.95" height="31" as="geometry" />
        </mxCell>
        <mxCell id="pLGgkDce8P1JYZrS_Spk-6" value="" style="rounded=0;whiteSpace=wrap;html=1;fillColor=#ffe6cc;fillStyle=hatch;strokeColor=#d79b00;perimeterSpacing=2;strokeWidth=2;" vertex="1" parent="1">
          <mxGeometry x="316" y="187" width="150" height="341.88" as="geometry" />
        </mxCell>
        <mxCell id="pLGgkDce8P1JYZrS_Spk-7" value="Bronze Layer" style="rounded=0;whiteSpace=wrap;html=1;fillColor=#ffe6cc;strokeColor=#d79b00;fillStyle=auto;" vertex="1" parent="1">
          <mxGeometry x="321" y="157" width="140" height="30" as="geometry" />
        </mxCell>
        <mxCell id="pLGgkDce8P1JYZrS_Spk-8" value="crm_sales_details" style="rounded=0;whiteSpace=wrap;html=1;fillColor=#ffe6cc;strokeColor=#d79b00;fillStyle=auto;" vertex="1" parent="1">
          <mxGeometry x="326" y="225.12" width="130" height="30" as="geometry" />
        </mxCell>
        <mxCell id="pLGgkDce8P1JYZrS_Spk-9" value="crm_prd_info" style="rounded=0;whiteSpace=wrap;html=1;fillColor=#ffe6cc;strokeColor=#d79b00;fillStyle=auto;" vertex="1" parent="1">
          <mxGeometry x="326" y="307" width="130" height="30" as="geometry" />
        </mxCell>
        <mxCell id="pLGgkDce8P1JYZrS_Spk-11" value="crm_cust_info" style="rounded=0;whiteSpace=wrap;html=1;fillColor=#ffe6cc;strokeColor=#d79b00;fillStyle=auto;" vertex="1" parent="1">
          <mxGeometry x="326" y="264.47" width="130" height="30" as="geometry" />
        </mxCell>
        <mxCell id="pLGgkDce8P1JYZrS_Spk-13" value="erp_cust_az12" style="rounded=0;whiteSpace=wrap;html=1;fillColor=#ffe6cc;strokeColor=#d79b00;fillStyle=auto;" vertex="1" parent="1">
          <mxGeometry x="326" y="365.05" width="130" height="30" as="geometry" />
        </mxCell>
        <mxCell id="pLGgkDce8P1JYZrS_Spk-14" value="erp_px_cat_g1v2" style="rounded=0;whiteSpace=wrap;html=1;fillColor=#ffe6cc;strokeColor=#d79b00;fillStyle=auto;" vertex="1" parent="1">
          <mxGeometry x="326" y="443.77" width="130" height="30" as="geometry" />
        </mxCell>
        <mxCell id="pLGgkDce8P1JYZrS_Spk-15" value="erp_loc_a101" style="rounded=0;whiteSpace=wrap;html=1;fillColor=#ffe6cc;strokeColor=#d79b00;fillStyle=auto;" vertex="1" parent="1">
          <mxGeometry x="326" y="404.41" width="130" height="30" as="geometry" />
        </mxCell>
        <mxCell id="pLGgkDce8P1JYZrS_Spk-19" style="edgeStyle=orthogonalEdgeStyle;rounded=0;orthogonalLoop=1;jettySize=auto;html=1;entryX=0.021;entryY=0.153;entryDx=0;entryDy=0;entryPerimeter=0;" edge="1" parent="1" source="pLGgkDce8P1JYZrS_Spk-2" target="pLGgkDce8P1JYZrS_Spk-6">
          <mxGeometry relative="1" as="geometry" />
        </mxCell>
        <mxCell id="pLGgkDce8P1JYZrS_Spk-21" style="edgeStyle=orthogonalEdgeStyle;rounded=0;orthogonalLoop=1;jettySize=auto;html=1;entryX=-0.007;entryY=0.364;entryDx=0;entryDy=0;entryPerimeter=0;" edge="1" parent="1" source="pLGgkDce8P1JYZrS_Spk-2" target="pLGgkDce8P1JYZrS_Spk-6">
          <mxGeometry relative="1" as="geometry" />
        </mxCell>
        <mxCell id="pLGgkDce8P1JYZrS_Spk-23" style="edgeStyle=orthogonalEdgeStyle;rounded=0;orthogonalLoop=1;jettySize=auto;html=1;entryX=-0.021;entryY=0.563;entryDx=0;entryDy=0;entryPerimeter=0;" edge="1" parent="1" source="pLGgkDce8P1JYZrS_Spk-4" target="pLGgkDce8P1JYZrS_Spk-6">
          <mxGeometry relative="1" as="geometry" />
        </mxCell>
        <mxCell id="ZvS9dqXflpcuF5kf7HD6-3" style="edgeStyle=orthogonalEdgeStyle;rounded=0;orthogonalLoop=1;jettySize=auto;html=1;entryX=0.006;entryY=0.798;entryDx=0;entryDy=0;entryPerimeter=0;" edge="1" parent="1" source="pLGgkDce8P1JYZrS_Spk-4" target="pLGgkDce8P1JYZrS_Spk-6">
          <mxGeometry relative="1" as="geometry" />
        </mxCell>
        <mxCell id="ZvS9dqXflpcuF5kf7HD6-4" value="" style="rounded=0;whiteSpace=wrap;html=1;fillColor=#f5f5f5;fillStyle=hatch;strokeColor=#666666;perimeterSpacing=2;strokeWidth=2;fontColor=#333333;" vertex="1" parent="1">
          <mxGeometry x="541" y="187" width="150" height="341.88" as="geometry" />
        </mxCell>
        <mxCell id="ZvS9dqXflpcuF5kf7HD6-5" value="SIlver Layer" style="rounded=0;whiteSpace=wrap;html=1;fillColor=#f5f5f5;strokeColor=#666666;fillStyle=auto;fontColor=#333333;" vertex="1" parent="1">
          <mxGeometry x="546" y="157" width="140" height="30" as="geometry" />
        </mxCell>
        <mxCell id="ZvS9dqXflpcuF5kf7HD6-6" value="crm_sales_details" style="rounded=0;whiteSpace=wrap;html=1;fillColor=#f5f5f5;strokeColor=#666666;fillStyle=auto;fontColor=#333333;" vertex="1" parent="1">
          <mxGeometry x="551" y="225.12" width="130" height="30" as="geometry" />
        </mxCell>
        <mxCell id="ZvS9dqXflpcuF5kf7HD6-7" value="crm_prd_info" style="rounded=0;whiteSpace=wrap;html=1;fillColor=#f5f5f5;strokeColor=#666666;fillStyle=auto;fontColor=#333333;" vertex="1" parent="1">
          <mxGeometry x="551" y="307" width="130" height="30" as="geometry" />
        </mxCell>
        <mxCell id="ZvS9dqXflpcuF5kf7HD6-8" value="crm_cust_info" style="rounded=0;whiteSpace=wrap;html=1;fillColor=#f5f5f5;strokeColor=#666666;fillStyle=auto;fontColor=#333333;" vertex="1" parent="1">
          <mxGeometry x="551" y="264.47" width="130" height="30" as="geometry" />
        </mxCell>
        <mxCell id="ZvS9dqXflpcuF5kf7HD6-9" value="erp_cust_az12" style="rounded=0;whiteSpace=wrap;html=1;fillColor=#f5f5f5;strokeColor=#666666;fillStyle=auto;fontColor=#333333;" vertex="1" parent="1">
          <mxGeometry x="551" y="365.04999999999995" width="130" height="30" as="geometry" />
        </mxCell>
        <mxCell id="ZvS9dqXflpcuF5kf7HD6-10" value="erp_px_cat_g1v2" style="rounded=0;whiteSpace=wrap;html=1;fillColor=#f5f5f5;strokeColor=#666666;fillStyle=auto;fontColor=#333333;" vertex="1" parent="1">
          <mxGeometry x="551" y="443.77" width="130" height="30" as="geometry" />
        </mxCell>
        <mxCell id="ZvS9dqXflpcuF5kf7HD6-11" value="erp_loc_a101" style="rounded=0;whiteSpace=wrap;html=1;fillColor=#f5f5f5;strokeColor=#666666;fillStyle=auto;fontColor=#333333;" vertex="1" parent="1">
          <mxGeometry x="551" y="404.4100000000001" width="130" height="30" as="geometry" />
        </mxCell>
        <mxCell id="ZvS9dqXflpcuF5kf7HD6-13" style="edgeStyle=orthogonalEdgeStyle;rounded=0;orthogonalLoop=1;jettySize=auto;html=1;entryX=0.013;entryY=0.159;entryDx=0;entryDy=0;entryPerimeter=0;" edge="1" parent="1" source="pLGgkDce8P1JYZrS_Spk-8" target="ZvS9dqXflpcuF5kf7HD6-4">
          <mxGeometry relative="1" as="geometry" />
        </mxCell>
        <mxCell id="ZvS9dqXflpcuF5kf7HD6-14" style="edgeStyle=orthogonalEdgeStyle;rounded=0;orthogonalLoop=1;jettySize=auto;html=1;entryX=0;entryY=0.272;entryDx=0;entryDy=0;entryPerimeter=0;" edge="1" parent="1" source="pLGgkDce8P1JYZrS_Spk-11" target="ZvS9dqXflpcuF5kf7HD6-4">
          <mxGeometry relative="1" as="geometry" />
        </mxCell>
        <mxCell id="ZvS9dqXflpcuF5kf7HD6-15" style="edgeStyle=orthogonalEdgeStyle;rounded=0;orthogonalLoop=1;jettySize=auto;html=1;entryX=-0.013;entryY=0.396;entryDx=0;entryDy=0;entryPerimeter=0;" edge="1" parent="1" source="pLGgkDce8P1JYZrS_Spk-9" target="ZvS9dqXflpcuF5kf7HD6-4">
          <mxGeometry relative="1" as="geometry" />
        </mxCell>
        <mxCell id="ZvS9dqXflpcuF5kf7HD6-16" style="edgeStyle=orthogonalEdgeStyle;rounded=0;orthogonalLoop=1;jettySize=auto;html=1;entryX=0.013;entryY=0.564;entryDx=0;entryDy=0;entryPerimeter=0;" edge="1" parent="1" source="pLGgkDce8P1JYZrS_Spk-13" target="ZvS9dqXflpcuF5kf7HD6-4">
          <mxGeometry relative="1" as="geometry" />
        </mxCell>
        <mxCell id="ZvS9dqXflpcuF5kf7HD6-18" style="edgeStyle=orthogonalEdgeStyle;rounded=0;orthogonalLoop=1;jettySize=auto;html=1;entryX=0.006;entryY=0.789;entryDx=0;entryDy=0;entryPerimeter=0;" edge="1" parent="1" source="pLGgkDce8P1JYZrS_Spk-14" target="ZvS9dqXflpcuF5kf7HD6-4">
          <mxGeometry relative="1" as="geometry" />
        </mxCell>
        <mxCell id="ZvS9dqXflpcuF5kf7HD6-19" style="edgeStyle=orthogonalEdgeStyle;rounded=0;orthogonalLoop=1;jettySize=auto;html=1;entryX=-0.006;entryY=0.679;entryDx=0;entryDy=0;entryPerimeter=0;" edge="1" parent="1" source="pLGgkDce8P1JYZrS_Spk-15" target="ZvS9dqXflpcuF5kf7HD6-4">
          <mxGeometry relative="1" as="geometry" />
        </mxCell>
        <mxCell id="RULpxkQBTUQsRtNqBX_v-1" value="" style="rounded=0;whiteSpace=wrap;html=1;fillColor=#fff2cc;fillStyle=hatch;strokeColor=#d6b656;perimeterSpacing=2;strokeWidth=2;" vertex="1" parent="1">
          <mxGeometry x="790" y="187" width="150" height="341.88" as="geometry" />
        </mxCell>
        <mxCell id="RULpxkQBTUQsRtNqBX_v-2" value="Gold Layer" style="rounded=0;whiteSpace=wrap;html=1;fillColor=#fff2cc;strokeColor=#d6b656;fillStyle=auto;" vertex="1" parent="1">
          <mxGeometry x="795" y="157" width="140" height="30" as="geometry" />
        </mxCell>
        <mxCell id="RULpxkQBTUQsRtNqBX_v-3" value="fact_sales" style="rounded=0;whiteSpace=wrap;html=1;fillColor=#fff2cc;strokeColor=#d6b656;fillStyle=auto;" vertex="1" parent="1">
          <mxGeometry x="800" y="225.12" width="130" height="30" as="geometry" />
        </mxCell>
        <mxCell id="RULpxkQBTUQsRtNqBX_v-4" value="dim_products" style="rounded=0;whiteSpace=wrap;html=1;fillColor=#fff2cc;strokeColor=#d6b656;fillStyle=auto;" vertex="1" parent="1">
          <mxGeometry x="800" y="426" width="130" height="30" as="geometry" />
        </mxCell>
        <mxCell id="RULpxkQBTUQsRtNqBX_v-5" value="dim_customers" style="rounded=0;whiteSpace=wrap;html=1;fillColor=#fff2cc;strokeColor=#d6b656;fillStyle=auto;" vertex="1" parent="1">
          <mxGeometry x="798" y="335.05" width="130" height="30" as="geometry" />
        </mxCell>
        <mxCell id="RULpxkQBTUQsRtNqBX_v-10" value="" style="endArrow=classic;html=1;rounded=0;entryX=0.045;entryY=0.168;entryDx=0;entryDy=0;entryPerimeter=0;exitX=1;exitY=0.5;exitDx=0;exitDy=0;" edge="1" parent="1" source="ZvS9dqXflpcuF5kf7HD6-6" target="RULpxkQBTUQsRtNqBX_v-1">
          <mxGeometry width="50" height="50" relative="1" as="geometry">
            <mxPoint x="695" y="244" as="sourcePoint" />
            <mxPoint x="741" y="197" as="targetPoint" />
          </mxGeometry>
        </mxCell>
        <mxCell id="RULpxkQBTUQsRtNqBX_v-20" value="" style="endArrow=classic;html=1;rounded=0;entryX=0.032;entryY=0.463;entryDx=0;entryDy=0;entryPerimeter=0;" edge="1" parent="1" target="RULpxkQBTUQsRtNqBX_v-1">
          <mxGeometry width="50" height="50" relative="1" as="geometry">
            <mxPoint x="683" y="279" as="sourcePoint" />
            <mxPoint x="733" y="229" as="targetPoint" />
          </mxGeometry>
        </mxCell>
        <mxCell id="RULpxkQBTUQsRtNqBX_v-22" value="" style="endArrow=classic;html=1;rounded=0;" edge="1" parent="1">
          <mxGeometry width="50" height="50" relative="1" as="geometry">
            <mxPoint x="681" y="380" as="sourcePoint" />
            <mxPoint x="792" y="345" as="targetPoint" />
          </mxGeometry>
        </mxCell>
        <mxCell id="RULpxkQBTUQsRtNqBX_v-23" value="" style="endArrow=classic;html=1;rounded=0;entryX=0.013;entryY=0.48;entryDx=0;entryDy=0;entryPerimeter=0;" edge="1" parent="1" target="RULpxkQBTUQsRtNqBX_v-1">
          <mxGeometry width="50" height="50" relative="1" as="geometry">
            <mxPoint x="681" y="416" as="sourcePoint" />
            <mxPoint x="781" y="365" as="targetPoint" />
          </mxGeometry>
        </mxCell>
        <mxCell id="RULpxkQBTUQsRtNqBX_v-24" value="" style="endArrow=classic;html=1;rounded=0;entryX=0;entryY=0.75;entryDx=0;entryDy=0;" edge="1" parent="1" target="RULpxkQBTUQsRtNqBX_v-1">
          <mxGeometry width="50" height="50" relative="1" as="geometry">
            <mxPoint x="685" y="450" as="sourcePoint" />
            <mxPoint x="795" y="516" as="targetPoint" />
          </mxGeometry>
        </mxCell>
        <mxCell id="RULpxkQBTUQsRtNqBX_v-25" value="" style="endArrow=classic;html=1;rounded=0;" edge="1" parent="1">
          <mxGeometry width="50" height="50" relative="1" as="geometry">
            <mxPoint x="687" y="322" as="sourcePoint" />
            <mxPoint x="785" y="434" as="targetPoint" />
          </mxGeometry>
        </mxCell>
        <mxCell id="RULpxkQBTUQsRtNqBX_v-26" value="Data Flow Diagram" style="text;strokeColor=none;fillColor=none;html=1;fontSize=24;fontStyle=1;verticalAlign=middle;align=center;" vertex="1" parent="1">
          <mxGeometry x="510" y="58" width="100" height="40" as="geometry" />
        </mxCell>
        <mxCell id="nydyHjeGWwAv2YzX-Vpn-1" value="" style="line;strokeWidth=1;rotatable=0;dashed=0;labelPosition=right;align=left;verticalAlign=middle;spacingTop=0;spacingLeft=6;points=[];portConstraint=eastwest;" vertex="1" parent="1">
          <mxGeometry x="39" y="107" width="1020" height="10" as="geometry" />
        </mxCell>
      </root>
    </mxGraphModel>
  </diagram>
</mxfile>
